<svg width="20" height="22" viewBox="0 0 20 22" fill="none" xmlns="http://www.w3.org/2000/svg">
<path d="M18.8399 15.8V3.59997C18.8399 0.999971 17.2099 0.639971 15.5599 1.08997L9.31991 2.78997C8.17991 3.09997 7.39991 3.99997 7.39991 5.29997V17.87M18.8399 15.8C18.8399 17.5231 17.443 18.92 15.7199 18.92C13.9968 18.92 12.5999 17.5231 12.5999 15.8C12.5999 14.0768 13.9968 12.68 15.7199 12.68C17.443 12.68 18.8399 14.0768 18.8399 15.8ZM7.39991 8.51997L18.8399 5.39997M7.39991 17.88C7.39991 19.6031 6.00304 21 4.27991 21C2.55678 21 1.15991 19.6031 1.15991 17.88C1.15991 16.1568 2.55678 14.76 4.27991 14.76C6.00304 14.76 7.39991 16.1568 7.39991 17.88Z" stroke="#DDDDDD" stroke-width="1.5" stroke-linecap="round" stroke-linejoin="round"/>
</svg>
